<?xml version="1.0" encoding="UTF-8"?>
<!DOCTYPE svg PUBLIC "-//W3C//DTD SVG 1.1//EN" "http://www.w3.org/Graphics/SVG/1.1/DTD/svg11.dtd">
<svg xmlns="http://www.w3.org/2000/svg" version="1.1" width="256px" height="256px" style="shape-rendering:geometricPrecision; text-rendering:geometricPrecision; image-rendering:optimizeQuality; fill-rule:evenodd; clip-rule:evenodd" xmlns:xlink="http://www.w3.org/1999/xlink">
<g><path style="opacity:0.009" fill="#626262" d="M 129.5,-0.5 C 135.5,-0.5 141.5,-0.5 147.5,-0.5C 141.5,0.833333 135.5,0.833333 129.5,-0.5 Z"/></g>
<g><path style="opacity:0.851" fill="#fafafa" d="M 182.5,92.5 C 184.55,94.2368 186.383,96.2368 188,98.5C 192.27,106.43 196.936,114.097 202,121.5C 204.049,127.194 205.549,133.028 206.5,139C 206.256,142.99 204.59,146.157 201.5,148.5C 196.353,158.103 190.187,167.103 183,175.5C 172.546,192.639 161.046,208.806 148.5,224C 148.833,224.333 149.167,224.667 149.5,225C 143.949,231.55 138.783,238.383 134,245.5C 129.689,250.707 125.355,250.707 121,245.5C 96.6431,211.466 72.6431,177.133 49,142.5C 46.6985,136.985 47.0319,131.652 50,126.5C 67.9557,98.1717 85.4557,69.0051 102.5,39C 109.627,29.2501 116.127,19.0834 122,8.5C 123.684,6.64868 125.517,4.98201 127.5,3.5C 129.422,4.71101 131.255,6.04434 133,7.5C 147.748,32.6657 162.748,57.6657 178,82.5C 179.786,85.7365 181.286,89.0698 182.5,92.5 Z"/></g>
<g><path style="opacity:0.991" fill="#9c9a99" d="M 132.5,10.5 C 131.502,37.995 131.169,65.6616 131.5,93.5C 130.336,65.3363 130.17,37.003 131,8.5C 131.717,9.0442 132.217,9.71087 132.5,10.5 Z"/></g>
<g><path style="opacity:0.993" fill="#969291" d="M 123.5,8.5 C 124.829,36.6695 124.829,65.0029 123.5,93.5C 101.167,103.5 78.8333,113.5 56.5,123.5C 56.1667,123.167 55.8333,122.833 55.5,122.5C 78.6192,84.7269 101.286,46.7269 123.5,8.5 Z"/></g>
<g><path style="opacity:0.992" fill="#3c3836" d="M 132.5,10.5 C 148.679,38.2026 165.346,65.5359 182.5,92.5C 188.645,103.132 194.478,113.799 200,124.5C 177.339,113.752 154.505,103.419 131.5,93.5C 131.169,65.6616 131.502,37.995 132.5,10.5 Z"/></g>
<g><path style="opacity:0.996" fill="#413d3b" d="M 123.5,99.5 C 124.829,123.337 124.829,147.337 123.5,171.5C 100.833,158.167 78.1667,144.833 55.5,131.5C 78.2487,120.79 100.915,110.123 123.5,99.5 Z"/></g>
<g><path style="opacity:0.996" fill="#8e8d8b" d="M 132.5,100.5 C 131.167,123.833 131.167,147.167 132.5,170.5C 132.44,171.043 132.107,171.376 131.5,171.5C 130.167,147.5 130.167,123.5 131.5,99.5C 132.107,99.6236 132.44,99.9569 132.5,100.5 Z"/></g>
<g><path style="opacity:0.996" fill="#201e1a" d="M 132.5,100.5 C 154.958,110.562 177.291,120.895 199.5,131.5C 177.303,144.764 154.97,157.764 132.5,170.5C 131.167,147.167 131.167,123.833 132.5,100.5 Z"/></g>
<g><path style="opacity:0.985" fill="#3d3937" d="M 201.5,148.5 C 178.022,180.109 155.022,212.109 132.5,244.5C 131.503,225.674 131.17,206.674 131.5,187.5C 155.467,172.979 179.467,158.813 203.5,145C 202.177,145.816 201.511,146.983 201.5,148.5 Z"/></g>
<g><path style="opacity:0.99" fill="#969291" d="M 51.5,145.5 C 51.8966,144.475 52.5632,144.308 53.5,145C 77,159.167 100.5,173.333 124,187.5C 124.667,207.167 124.667,226.833 124,246.5C 100.358,212.373 76.1912,178.707 51.5,145.5 Z"/></g>
<g><path style="opacity:0.996" fill="#9b9998" d="M 131.5,187.5 C 131.17,206.674 131.503,225.674 132.5,244.5C 132.217,245.289 131.717,245.956 131,246.5C 130.171,226.662 130.338,206.996 131.5,187.5 Z"/></g>
</svg>
