<?xml version="1.0" encoding="UTF-8"?>
<!DOCTYPE svg PUBLIC "-//W3C//DTD SVG 1.1//EN" "http://www.w3.org/Graphics/SVG/1.1/DTD/svg11.dtd">
<svg xmlns="http://www.w3.org/2000/svg" version="1.1" width="256px" height="256px" style="shape-rendering:geometricPrecision; text-rendering:geometricPrecision; image-rendering:optimizeQuality; fill-rule:evenodd; clip-rule:evenodd" xmlns:xlink="http://www.w3.org/1999/xlink">
<g><path style="opacity:0.988" fill="#fefefe" d="M 112.5,-0.5 C 122.5,-0.5 132.5,-0.5 142.5,-0.5C 197.083,8.23843 233.25,38.9051 251,91.5C 252.715,98.2585 254.215,104.925 255.5,111.5C 255.5,122.167 255.5,132.833 255.5,143.5C 246.296,197.548 215.629,233.382 163.5,251C 156.41,252.731 149.41,254.231 142.5,255.5C 132.5,255.5 122.5,255.5 112.5,255.5C 57.9095,246.755 21.7429,216.089 4,163.5C 2.28494,156.741 0.784944,150.075 -0.5,143.5C -0.5,132.833 -0.5,122.167 -0.5,111.5C 9.81715,54.6747 42.8172,18.1747 98.5,2C 103.362,1.47703 108.028,0.643695 112.5,-0.5 Z"/></g>
<g><path style="opacity:1" fill="#9c9a99" d="M 132.5,10.5 C 131.502,37.995 131.169,65.6616 131.5,93.5C 130.336,65.3363 130.17,37.003 131,8.5C 131.717,9.0442 132.217,9.71087 132.5,10.5 Z"/></g>
<g><path style="opacity:1" fill="#969291" d="M 123.5,8.5 C 124.829,36.6695 124.829,65.0029 123.5,93.5C 100.381,103.801 77.3811,113.968 54.5,124C 77.7534,85.5963 100.753,47.0963 123.5,8.5 Z"/></g>
<g><path style="opacity:1" fill="#3c3836" d="M 132.5,10.5 C 154.904,48.3048 177.571,85.9715 200.5,123.5C 177.679,113.943 154.679,103.943 131.5,93.5C 131.169,65.6616 131.502,37.995 132.5,10.5 Z"/></g>
<g><path style="opacity:1" fill="#413d3b" d="M 123.5,100.5 C 123.831,124.006 123.498,147.339 122.5,170.5C 100.03,157.764 77.6969,144.764 55.5,131.5C 77.9413,120.612 100.608,110.278 123.5,100.5 Z"/></g>
<g><path style="opacity:1" fill="#585452" d="M 122.5,170.5 C 123.498,147.339 123.831,124.006 123.5,100.5C 124.177,111.426 124.51,123.092 124.5,135.5C 124.167,147.5 123.833,159.5 123.5,171.5C 122.893,171.376 122.56,171.043 122.5,170.5 Z"/></g>
<g><path style="opacity:1" fill="#8e8d8b" d="M 132.5,100.5 C 131.167,123.833 131.167,147.167 132.5,170.5C 132.44,171.043 132.107,171.376 131.5,171.5C 130.167,147.5 130.167,123.5 131.5,99.5C 132.107,99.6236 132.44,99.9569 132.5,100.5 Z"/></g>
<g><path style="opacity:1" fill="#201e1a" d="M 132.5,100.5 C 154.958,110.562 177.291,120.895 199.5,131.5C 177.303,144.764 154.97,157.764 132.5,170.5C 131.167,147.167 131.167,123.833 132.5,100.5 Z"/></g>
<g><path style="opacity:1" fill="#3d3937" d="M 132.5,244.5 C 131.503,225.674 131.17,206.674 131.5,187.5C 155.467,172.979 179.467,158.813 203.5,145C 179.614,178.046 155.948,211.212 132.5,244.5 Z"/></g>
<g><path style="opacity:1" fill="#969291" d="M 51.5,145.5 C 51.8966,144.475 52.5632,144.308 53.5,145C 77,159.167 100.5,173.333 124,187.5C 124.667,207.167 124.667,226.833 124,246.5C 100.358,212.373 76.1912,178.707 51.5,145.5 Z"/></g>
<g><path style="opacity:1" fill="#9b9998" d="M 131.5,187.5 C 131.17,206.674 131.503,225.674 132.5,244.5C 132.217,245.289 131.717,245.956 131,246.5C 130.171,226.662 130.338,206.996 131.5,187.5 Z"/></g>
</svg>
